<svg  viewBox="0 0 484 242" fill="none" xmlns="http://www.w3.org/2000/svg">
<g clip-path="url(#clip0_17_440)">
<path d="M262.532 33.051H242.398H181.893H161.774V10.1667C161.774 4.84721 166.284 0.530029 171.841 0.530029H252.464C258.021 0.530029 262.531 4.84721 262.531 10.1667V33.051H262.532Z" fill="#434A54"/>
<path d="M71.0709 96.781C71.0709 96.781 108.331 29.3551 212.154 29.3551C315.991 29.3551 353.046 96.809 353.046 96.809C473.773 96.809 473.773 96.809 473.773 202.717H51.1734C32.5871 202.858 10.9209 183.67 10.9209 183.67V116.04L31.0542 96.781H71.0709Z" fill="#FFCE54"/>
<path d="M346.324 87.1452C331.584 68.4932 291.243 29.3551 212.153 29.3551C133.033 29.3551 92.5598 68.5067 77.7911 87.1452H346.324Z" fill="#4FC2E9"/>
<path d="M202.105 33.433H181.986V87.1425H202.105V33.433Z" fill="#3BAFDA"/>
<path d="M50.9819 212.368C29.1242 212.368 6.58727 192.953 4.0969 190.752C2.03291 188.918 0.85376 186.35 0.85376 183.669V116.039C0.85376 113.485 1.915 111.03 3.80164 109.224L23.935 89.9653C25.8216 88.1593 28.3865 87.1434 31.0542 87.1434H65.4553C70.1426 80.371 80.0617 67.899 96.4519 55.4974C118.045 39.1733 155.644 19.7175 212.154 19.7175C268.694 19.7175 306.233 39.1877 327.783 55.5254C344.129 67.927 354.004 80.399 358.692 87.1859C417.839 87.2003 448.054 87.6518 465.477 102.946C483.826 119.059 483.826 147.015 483.826 202.716C483.826 208.05 479.33 212.368 473.774 212.368H50.9819ZM20.9871 179.24C27.8705 184.517 41.0761 193.095 50.9809 193.095H51.0989C51.114 193.095 51.1432 193.095 51.1724 193.095H463.706C463.648 150.657 462.896 126.82 451.885 117.155C439.681 106.447 408.906 106.447 353.045 106.447C349.316 106.447 345.881 104.457 344.142 101.297C344.068 101.169 335.151 85.4666 314.516 70.0463C286.925 49.433 252.494 38.9927 212.153 38.9927C115.509 38.9927 80.3117 100.662 79.9579 101.283C78.2184 104.429 74.7989 106.405 71.0699 106.405H35.2105L20.9871 120.035V179.24Z" fill="#FFCE54"/>
<path d="M111.544 145.154C83.8058 145.154 61.2396 166.741 61.2396 193.293C61.2396 219.875 83.8058 241.462 111.544 241.462C139.283 241.462 161.849 219.875 161.849 193.293C161.849 166.741 139.283 145.154 111.544 145.154Z" fill="#434A54"/>
<path d="M373.149 145.154C345.411 145.154 322.844 166.741 322.844 193.293C322.844 219.875 345.411 241.462 373.149 241.462C400.887 241.462 423.454 219.875 423.454 193.293C423.454 166.741 400.887 145.154 373.149 145.154Z" fill="#434A54"/>
<path d="M101.478 193.292C101.478 198.625 105.988 202.943 111.544 202.943C117.101 202.943 121.611 198.626 121.611 193.292C121.611 187.987 117.101 183.67 111.544 183.67C105.988 183.67 101.478 187.987 101.478 193.292Z" fill="#F5F7FA"/>
<path d="M161.908 125.747C156.351 125.747 151.842 130.051 151.842 135.384C151.842 140.696 156.352 145.013 161.908 145.013C167.464 145.013 171.975 140.696 171.975 135.384C171.975 130.05 167.464 125.747 161.908 125.747Z" fill="#434A54"/>
<path d="M182.026 145.013C176.47 145.013 171.974 149.33 171.974 154.635C171.974 159.968 176.47 164.286 182.026 164.286C187.584 164.286 192.094 159.969 192.094 154.635C192.094 149.33 187.584 145.013 182.026 145.013Z" fill="#434A54"/>
<path d="M202.161 125.747C196.604 125.747 192.094 130.051 192.094 135.384C192.094 140.696 196.604 145.013 202.161 145.013C207.717 145.013 212.213 140.696 212.213 135.384C212.213 130.05 207.717 125.747 202.161 125.747Z" fill="#434A54"/>
<path d="M222.28 145.013C216.723 145.013 212.213 149.33 212.213 154.635C212.213 159.968 216.723 164.286 222.28 164.286C227.836 164.286 232.346 159.969 232.346 154.635C232.346 149.33 227.836 145.013 222.28 145.013Z" fill="#434A54"/>
<path d="M242.398 125.747C236.841 125.747 232.346 130.051 232.346 135.384C232.346 140.696 236.842 145.013 242.398 145.013C247.954 145.013 252.465 140.696 252.465 135.384C252.465 130.05 247.955 125.747 242.398 125.747Z" fill="#434A54"/>
<path d="M262.532 145.013C256.975 145.013 252.465 149.33 252.465 154.635C252.465 159.968 256.975 164.286 262.532 164.286C268.089 164.286 272.584 159.969 272.584 154.635C272.584 149.33 268.089 145.013 262.532 145.013Z" fill="#434A54"/>
<path d="M282.651 125.747C277.093 125.747 272.584 130.051 272.584 135.384C272.584 140.696 277.093 145.013 282.651 145.013C288.208 145.013 292.718 140.696 292.718 135.384C292.718 130.05 288.208 125.747 282.651 125.747Z" fill="#434A54"/>
<path d="M302.77 145.013C297.213 145.013 292.719 149.33 292.719 154.635C292.719 159.968 297.214 164.286 302.77 164.286C308.327 164.286 312.837 159.969 312.837 154.635C312.836 149.33 308.326 145.013 302.77 145.013Z" fill="#434A54"/>
<path d="M322.903 125.747C317.346 125.747 312.836 130.051 312.836 135.384C312.836 140.696 317.346 145.013 322.903 145.013C328.46 145.013 332.955 140.696 332.955 135.384C332.956 130.05 328.46 125.747 322.903 125.747Z" fill="#434A54"/>
<path d="M363.083 193.292C363.083 198.625 367.593 202.943 373.149 202.943C378.706 202.943 383.216 198.626 383.216 193.292C383.216 187.987 378.706 183.67 373.149 183.67C367.593 183.67 363.083 187.987 363.083 193.292Z" fill="#F5F7FA"/>
<path d="M481.069 134.988C479.831 127.637 478.018 121.387 475.394 116.04H443.455C437.898 116.04 433.388 120.344 433.388 125.676C433.388 130.995 437.898 135.298 443.455 135.298H478.578C479.447 135.299 480.273 135.186 481.069 134.988Z" fill="#F5F7FA"/>
<path d="M31.0542 87.1453C28.3865 87.1453 25.8216 88.1612 23.935 89.9671L3.80164 109.225C1.915 111.031 0.85376 113.486 0.85376 116.04H31.0542C36.6113 116.04 41.1063 111.723 41.1063 106.403V87.1444H31.0542V87.1453Z" fill="#FC6E51"/>
</g>
<defs>
<clipPath id="clip0_17_440">
<rect width="482.981" height="242" fill="white" transform="translate(0.85376)"/>
</clipPath>
</defs>
</svg>
